{
  "accessors": [
    {
      "bufferView": 2,
      "componentType": 5126,
      "count": 31195,
      "max": [
        7.084996700286865,
        8.094864845275879,
        10.0671968460083
      ],
      "min": [
        -7.117390155792236,
        -7.109984397888184,
        -0.16836021840572357
      ],
      "type": "VEC3"
    },
    {
      "bufferView": 2,
      "byteOffset": 374340,
      "componentType": 5126,
      "count": 31195,
      "max": [
        1.0,
        1.0,
        1.0
      ],
      "min": [
        -1.0,
        -1.0,
        -1.0
      ],
      "type": "VEC3"
    },
    {
      "bufferView": 1,
      "componentType": 5126,
      "count": 31195,
      "max": [
        1.0,
        0.9466516375541687
      ],
      "min": [
        0.0,
        0.0
      ],
      "type": "VEC2"
    },
    {
      "bufferView": 0,
      "componentType": 5125,
      "count": 47628,
      "type": "SCALAR"
    },
    {
      "bufferView": 2,
      "byteOffset": 748680,
      "componentType": 5126,
      "count": 64,
      "max": [
        6.646424770355225,
        -1.4651987552642822,
        7.683434009552002
      ],
      "min": [
        3.5135409832000732,
        -5.5603179931640625,
        0.7166479825973511
      ],
      "type": "VEC3"
    },
    {
      "bufferView": 2,
      "byteOffset": 749448,
      "componentType": 5126,
      "count": 64,
      "max": [
        0.538275420665741,
        0.8427690863609314,
        1.0
      ],
      "min": [
        -0.9271541833877563,
        -0.8427671194076538,
        -1.0
      ],
      "type": "VEC3"
    },
    {
      "bufferView": 1,
      "byteOffset": 249560,
      "componentType": 5126,
      "count": 64,
      "max": [
        0.8346732258796692,
        0.8055744767189026
      ],
      "min": [
        0.0,
        0.0
      ],
      "type": "VEC2"
    },
    {
      "bufferView": 0,
      "byteOffset": 190512,
      "componentType": 5125,
      "count": 96,
      "type": "SCALAR"
    },
    {
      "bufferView": 2,
      "byteOffset": 750216,
      "componentType": 5126,
      "count": 6993,
      "max": [
        7.0,
        7.051508903503418,
        7.544495105743408
      ],
      "min": [
        -7.127387046813965,
        -5.462681770324707,
        -0.04065699875354767
      ],
      "type": "VEC3"
    },
    {
      "bufferView": 2,
      "byteOffset": 834132,
      "componentType": 5126,
      "count": 6993,
      "max": [
        1.0,
        1.0,
        1.0
      ],
      "min": [
        -1.0,
        -1.0,
        -1.0
      ],
      "type": "VEC3"
    },
    {
      "bufferView": 1,
      "byteOffset": 250072,
      "componentType": 5126,
      "count": 6993,
      "max": [
        1.0,
        1.0
      ],
      "min": [
        -1.341104507446289e-07,
        0.0
      ],
      "type": "VEC2"
    },
    {
      "bufferView": 0,
      "byteOffset": 190896,
      "componentType": 5125,
      "count": 10683,
      "type": "SCALAR"
    },
    {
      "bufferView": 2,
      "byteOffset": 918048,
      "componentType": 5126,
      "count": 816,
      "max": [
        4.656012058258057,
        6.858351230621338,
        5.896228790283203
      ],
      "min": [
        -7.067958831787109,
        -4.569545269012451,
        0.0
      ],
      "type": "VEC3"
    },
    {
      "bufferView": 2,
      "byteOffset": 927840,
      "componentType": 5126,
      "count": 816,
      "max": [
        1.0,
        1.0,
        1.0
      ],
      "min": [
        -1.0,
        -1.0,
        -1.0
      ],
      "type": "VEC3"
    },
    {
      "bufferView": 1,
      "byteOffset": 306016,
      "componentType": 5126,
      "count": 816,
      "max": [
        1.0,
        1.0
      ],
      "min": [
        0.0,
        -0.03958113491535187
      ],
      "type": "VEC2"
    },
    {
      "bufferView": 0,
      "byteOffset": 233628,
      "componentType": 5125,
      "count": 1224,
      "type": "SCALAR"
    },
    {
      "bufferView": 2,
      "byteOffset": 937632,
      "componentType": 5126,
      "count": 16,
      "max": [
        5.724793910980225,
        8.094864845275879,
        8.099072456359863
      ],
      "min": [
        -3.6954660415649414,
        0.8791521787643433,
        3.209016799926758
      ],
      "type": "VEC3"
    },
    {
      "bufferView": 2,
      "byteOffset": 937824,
      "componentType": 5126,
      "count": 16,
      "max": [
        0.0,
        0.39532384276390076,
        0.0
      ],
      "min": [
        -0.9185418486595154,
        -1.0,
        0.0
      ],
      "type": "VEC3"
    },
    {
      "bufferView": 1,
      "byteOffset": 312544,
      "componentType": 5126,
      "count": 16,
      "max": [
        0.22358694672584534,
        0.39235007762908936
      ],
      "min": [
        0.0,
        0.0
      ],
      "type": "VEC2"
    },
    {
      "bufferView": 0,
      "byteOffset": 238524,
      "componentType": 5125,
      "count": 24,
      "type": "SCALAR"
    },
    {
      "bufferView": 2,
      "byteOffset": 938016,
      "componentType": 5126,
      "count": 814,
      "max": [
        6.719587802886963,
        6.281795978546143,
        5.337034702301025
      ],
      "min": [
        -4.952714920043945,
        -2.0501904487609863,
        1.4871360063552856
      ],
      "type": "VEC3"
    },
    {
      "bufferView": 2,
      "byteOffset": 947784,
      "componentType": 5126,
      "count": 814,
      "max": [
        1.0,
        1.0,
        1.0
      ],
      "min": [
        -1.0,
        -1.0,
        -1.0
      ],
      "type": "VEC3"
    },
    {
      "bufferView": 1,
      "byteOffset": 312672,
      "componentType": 5126,
      "count": 814,
      "max": [
        0.401224285364151,
        0.4268393814563751
      ],
      "min": [
        0.008889570832252502,
        0.07538125663995743
      ],
      "type": "VEC2"
    },
    {
      "bufferView": 0,
      "byteOffset": 238620,
      "componentType": 5125,
      "count": 876,
      "type": "SCALAR"
    },
    {
      "bufferView": 2,
      "byteOffset": 957552,
      "componentType": 5126,
      "count": 192,
      "max": [
        3.933255672454834,
        6.427463531494141,
        4.889866828918457
      ],
      "min": [
        3.0823633670806885,
        4.793126106262207,
        3.005122423171997
      ],
      "type": "VEC3"
    },
    {
      "bufferView": 2,
      "byteOffset": 959856,
      "componentType": 5126,
      "count": 192,
      "max": [
        0.9861566424369812,
        0.9954513311386108,
        1.0
      ],
      "min": [
        -0.9861566424369812,
        -0.9974801540374756,
        -1.0
      ],
      "type": "VEC3"
    },
    {
      "bufferView": 1,
      "byteOffset": 319184,
      "componentType": 5126,
      "count": 192,
      "max": [
        1.0,
        1.0
      ],
      "min": [
        -7.450580596923828e-08,
        0.024473756551742554
      ],
      "type": "VEC2"
    },
    {
      "bufferView": 0,
      "byteOffset": 242124,
      "componentType": 5125,
      "count": 324,
      "type": "SCALAR"
    }
  ],
  "asset": {
    "extras": {
      "author": "coremort (https://sketchfab.com/coremort)",
      "license": "CC-BY-4.0 (http://creativecommons.org/licenses/by/4.0/)",
      "source": "https://sketchfab.com/3d-models/lowpoly-room-e49f71feb3ea470888993134ce746bd5",
      "title": "Lowpoly Room"
    },
    "generator": "Sketchfab-12.66.0",
    "version": "2.0"
  },
  "bufferViews": [
    {
      "buffer": 0,
      "byteLength": 243420,
      "name": "floatBufferViews",
      "target": 34963
    },
    {
      "buffer": 0,
      "byteLength": 320720,
      "byteOffset": 243420,
      "byteStride": 8,
      "name": "floatBufferViews",
      "target": 34962
    },
    {
      "buffer": 0,
      "byteLength": 962160,
      "byteOffset": 564140,
      "byteStride": 12,
      "name": "floatBufferViews",
      "target": 34962
    }
  ],
  "buffers": [
    {
      "byteLength": 1526300,
      "uri": "scene.bin"
    }
  ],
  "images": [
    {
      "uri": "textures/Color_baseColor.jpeg"
    }
  ],
  "materials": [
    {
      "doubleSided": true,
      "name": "Color",
      "pbrMetallicRoughness": {
        "baseColorTexture": {
          "index": 0
        },
        "metallicFactor": 0.21532462271052438,
        "roughnessFactor": 0.4203926687847306
      }
    },
    {
      "doubleSided": true,
      "name": "mirror",
      "pbrMetallicRoughness": {
        "baseColorFactor": [
          0.2359361561890316,
          0.7541045843905528,
          0.8648245820318267,
          1.0
        ],
        "roughnessFactor": 0.1022713683469828
      }
    },
    {
      "doubleSided": true,
      "name": "metal",
      "pbrMetallicRoughness": {
        "baseColorFactor": [
          0.213356,
          0.326862,
          0.367238,
          1.0
        ],
        "metallicFactor": 0.3409393497811261,
        "roughnessFactor": 0.9201612970340269
      }
    },
    {
      "doubleSided": true,
      "name": "metal.001",
      "pbrMetallicRoughness": {
        "baseColorFactor": [
          0.879469,
          0.970993,
          1.0,
          1.0
        ],
        "metallicFactor": 0.7177835309929314,
        "roughnessFactor": 0.7296775770705595
      }
    },
    {
      "doubleSided": true,
      "emissiveFactor": [
        0.4125511196591062,
        1.0,
        1.0
      ],
      "name": "emission_window",
      "pbrMetallicRoughness": {
        "baseColorFactor": [
          0.8,
          0.8,
          0.8,
          1.0
        ],
        "metallicFactor": 0.0,
        "roughnessFactor": 0.8040408205773457
      }
    },
    {
      "doubleSided": true,
      "emissiveFactor": [
        1.0,
        0.0,
        0.0
      ],
      "name": "emission_lamp",
      "pbrMetallicRoughness": {
        "baseColorFactor": [
          0.8,
          0.8,
          0.8,
          1.0
        ],
        "metallicFactor": 0.0,
        "roughnessFactor": 0.8040408205773457
      }
    },
    {
      "doubleSided": true,
      "name": "glass",
      "pbrMetallicRoughness": {
        "baseColorFactor": [
          0.3187159099135048,
          0.6934437370126728,
          0.783914465286133,
          1.0
        ],
        "roughnessFactor": 0.7481703206076533
      }
    }
  ],
  "meshes": [
    {
      "name": "Box010.001_Color_0",
      "primitives": [
        {
          "attributes": {
            "NORMAL": 1,
            "POSITION": 0,
            "TEXCOORD_0": 2
          },
          "indices": 3,
          "material": 0,
          "mode": 4
        }
      ]
    },
    {
      "name": "Box010.001_mirror_0",
      "primitives": [
        {
          "attributes": {
            "NORMAL": 5,
            "POSITION": 4,
            "TEXCOORD_0": 6
          },
          "indices": 7,
          "material": 1,
          "mode": 4
        }
      ]
    },
    {
      "name": "Box010.001_metal_0",
      "primitives": [
        {
          "attributes": {
            "NORMAL": 9,
            "POSITION": 8,
            "TEXCOORD_0": 10
          },
          "indices": 11,
          "material": 2,
          "mode": 4
        }
      ]
    },
    {
      "name": "Box010.001_metal.001_0",
      "primitives": [
        {
          "attributes": {
            "NORMAL": 13,
            "POSITION": 12,
            "TEXCOORD_0": 14
          },
          "indices": 15,
          "material": 3,
          "mode": 4
        }
      ]
    },
    {
      "name": "Box010.001_emission_window_0",
      "primitives": [
        {
          "attributes": {
            "NORMAL": 17,
            "POSITION": 16,
            "TEXCOORD_0": 18
          },
          "indices": 19,
          "material": 4,
          "mode": 4
        }
      ]
    },
    {
      "name": "Box010.001_emission_lamp_0",
      "primitives": [
        {
          "attributes": {
            "NORMAL": 21,
            "POSITION": 20,
            "TEXCOORD_0": 22
          },
          "indices": 23,
          "material": 5,
          "mode": 4
        }
      ]
    },
    {
      "name": "Box010.001_glass_0",
      "primitives": [
        {
          "attributes": {
            "NORMAL": 25,
            "POSITION": 24,
            "TEXCOORD_0": 26
          },
          "indices": 27,
          "material": 6,
          "mode": 4
        }
      ]
    }
  ],
  "nodes": [
    {
      "children": [
        1
      ],
      "matrix": [
        1.0,
        0.0,
        0.0,
        0.0,
        0.0,
        2.220446049250313e-16,
        -1.0,
        0.0,
        0.0,
        1.0,
        2.220446049250313e-16,
        0.0,
        0.0,
        -2.0521947590168625e-06,
        2.684009086806327e-05,
        1.0
      ],
      "name": "Sketchfab_model"
    },
    {
      "children": [
        2
      ],
      "matrix": [
        1.0,
        0.0,
        0.0,
        0.0,
        0.0,
        0.0,
        1.0,
        0.0,
        0.0,
        -1.0,
        0.0,
        0.0,
        0.0,
        0.0,
        0.0,
        1.0
      ],
      "name": "dde3a4521cb4454e9e910ed24fcba3e5.fbx"
    },
    {
      "children": [
        3
      ],
      "name": "RootNode"
    },
    {
      "children": [
        4,
        5,
        6,
        7,
        8,
        9,
        10
      ],
      "matrix": [
        100.0,
        0.0,
        0.0,
        0.0,
        0.0,
        1.9470718870540082e-05,
        -99.99999999999811,
        0.0,
        0.0,
        99.99999999999811,
        1.9470718870540082e-05,
        0.0,
        0.0,
        0.0,
        0.0,
        1.0
      ],
      "name": "Box010.001"
    },
    {
      "mesh": 0,
      "name": "Box010.001_Color_0"
    },
    {
      "mesh": 1,
      "name": "Box010.001_mirror_0"
    },
    {
      "mesh": 2,
      "name": "Box010.001_metal_0"
    },
    {
      "mesh": 3,
      "name": "Box010.001_metal.001_0"
    },
    {
      "mesh": 4,
      "name": "Box010.001_emission_window_0"
    },
    {
      "mesh": 5,
      "name": "Box010.001_emission_lamp_0"
    },
    {
      "mesh": 6,
      "name": "Box010.001_glass_0"
    }
  ],
  "samplers": [
    {
      "magFilter": 9729,
      "minFilter": 9987,
      "wrapS": 10497,
      "wrapT": 10497
    }
  ],
  "scene": 0,
  "scenes": [
    {
      "name": "Sketchfab_Scene",
      "nodes": [
        0
      ]
    }
  ],
  "textures": [
    {
      "sampler": 0,
      "source": 0
    }
  ]
}
