<svg id="svg" version="1.1" xmlns="http://www.w3.org/2000/svg" style="display: block;" viewBox="0 0 1024 1024"><path d="M0 0 C337.92 0 675.84 0 1024 0 C1024 337.92 1024 675.84 1024 1024 C686.08 1024 348.16 1024 0 1024 C0 686.08 0 348.16 0 0 Z " transform="translate(0,0)" fill="none"/><path d="M0 0 C16.17 0 32.34 0 49 0 C57.25 0.99 65.5 1.98 74 3 C82.58 4.98 91.16 6.96 100 9 C114.85 13.95 114.85 13.95 130 19 C146.335 26.92 146.335 26.92 163 35 C168.61 37.97 174.22 40.94 180 44 C192.375 51.425 192.375 51.425 205 59 C214.405 65.435 214.405 65.435 224 72 C230.27 76.62 236.54 81.24 243 86 C247.29 89.63 251.58 93.26 256 97 C259.3 99.97 262.6 102.94 266 106 C269.96 109.465 269.96 109.465 274 113 C280.93 119.93 287.86 126.86 295 134 C297.31 136.64 299.62 139.28 302 142 C305.3 145.96 308.6 149.92 312 154 C316.29 159.61 320.58 165.22 325 171 C328.63 175.95 332.26 180.9 336 186 C342.93 196.395 342.93 196.395 350 207 C357.92 220.365 357.92 220.365 366 234 C369.96 241.26 373.92 248.52 378 256 C380.97 261.61 383.94 267.22 387 273 C391.29 282.24 395.58 291.48 400 301 C403.63 310.9 407.26 320.8 411 331 C412.98 337.93 414.96 344.86 417 352 C419.475 366.355 419.475 366.355 422 381 C422.66 388.59 423.32 396.18 424 404 C424 409.28 424 414.56 424 420 C423.34 428.58 422.68 437.16 422 446 C420.515 456.395 420.515 456.395 419 467 C419 470.96 419 474.92 419 479 C420.32 482.63 421.64 486.26 423 490 C426.96 495.445 426.96 495.445 431 501 C436.445 504.465 436.445 504.465 442 508 C446.62 509.98 451.24 511.96 456 514 C459.96 515.65 463.92 517.3 468 519 C470.97 520.98 473.94 522.96 477 525 C478.32 526.98 479.64 528.96 481 531 C481.33 531.99 481.66 532.98 482 534 C482 537.63 482 541.26 482 545 C479.69 548.63 477.38 552.26 475 556 C470.545 561.445 470.545 561.445 466 567 C462.7 570.3 459.4 573.6 456 577 C452.37 579.97 448.74 582.94 445 586 C439.72 589.96 434.44 593.92 429 598 C424.05 601.96 419.1 605.92 414 610 C411.36 612.31 408.72 614.62 406 617 C402.37 621.29 398.74 625.58 395 630 C390.71 636.27 386.42 642.54 382 649 C378.37 654.61 374.74 660.22 371 666 C366.05 673.92 361.1 681.84 356 690 C352.04 695.61 348.08 701.22 344 707 C341.03 710.3 338.06 713.6 335 717 C331.7 720.3 328.4 723.6 325 727 C320.38 729.97 315.76 732.94 311 736 C307.04 737.32 303.08 738.64 299 740 C283.16 742.31 267.32 744.62 251 747 C244.4 748.32 237.8 749.64 231 751 C225.06 752.98 219.12 754.96 213 757 C206.565 759.475 206.565 759.475 200 762 C197.69 762.66 195.38 763.32 193 764 C189.04 764 185.08 764 181 764 C178.69 762.68 176.38 761.36 174 760 C171.69 757.36 169.38 754.72 167 752 C165.02 748.37 163.04 744.74 161 741 C160.01 740.01 159.02 739.02 158 738 C157.01 737.67 156.02 737.34 155 737 C151.7 737 148.4 737 145 737 C136.585 739.475 136.585 739.475 128 742 C122.06 743.32 116.12 744.64 110 746 C102.41 747.65 94.82 749.3 87 751 C77.76 752.32 68.52 753.64 59 755 C55.37 755.33 51.74 755.66 48 756 C32.16 756 16.32 756 0 756 C-12.21 754.68 -24.42 753.36 -37 752 C-45.91 750.515 -45.91 750.515 -55 749 C-65.395 746.03 -65.395 746.03 -76 743 C-82.6 740.69 -89.2 738.38 -96 736 C-98.64 735.67 -101.28 735.34 -104 735 C-105.65 735.99 -107.3 736.98 -109 738 C-113.95 746.415 -113.95 746.415 -119 755 C-121.64 757.64 -124.28 760.28 -127 763 C-127.99 763.33 -128.98 763.66 -130 764 C-134.29 764 -138.58 764 -143 764 C-150.92 761.36 -158.84 758.72 -167 756 C-175.91 753.03 -175.91 753.03 -185 750 C-191.93 748.68 -198.86 747.36 -206 746 C-226.79 743.525 -226.79 743.525 -248 741 C-251.63 739.68 -255.26 738.36 -259 737 C-262.96 734.69 -266.92 732.38 -271 730 C-275.29 726.04 -279.58 722.08 -284 718 C-287.3 714.37 -290.6 710.74 -294 707 C-297.63 702.05 -301.26 697.1 -305 692 C-308.63 686.06 -312.26 680.12 -316 674 C-319.3 669.05 -322.6 664.1 -326 659 C-330.29 652.73 -334.58 646.46 -339 640 C-342.63 635.38 -346.26 630.76 -350 626 C-354.95 621.05 -359.9 616.1 -365 611 C-370.61 607.04 -376.22 603.08 -382 599 C-386.62 595.7 -391.24 592.4 -396 589 C-399.3 586.03 -402.6 583.06 -406 580 C-409.3 576.7 -412.6 573.4 -416 570 C-419.63 565.38 -423.26 560.76 -427 556 C-428.65 552.7 -430.3 549.4 -432 546 C-432 542.37 -432 538.74 -432 535 C-430.68 532.69 -429.36 530.38 -428 528 C-425.03 525.69 -422.06 523.38 -419 521 C-410.42 517.7 -401.84 514.4 -393 511 C-387.555 507.535 -387.555 507.535 -382 504 C-380.35 502.02 -378.7 500.04 -377 498 C-375.02 494.04 -375.02 494.04 -373 490 C-372.34 487.69 -371.68 485.38 -371 483 C-371 477.39 -371 471.78 -371 466 C-371.99 457.09 -372.98 448.18 -374 439 C-374.33 434.38 -374.66 429.76 -375 425 C-375 416.42 -375 407.84 -375 399 C-373.68 389.76 -372.36 380.52 -371 371 C-369.35 363.41 -367.7 355.82 -366 348 C-363.03 338.43 -360.06 328.86 -357 319 C-353.7 310.75 -350.4 302.5 -347 294 C-343.37 286.08 -339.74 278.16 -336 270 C-331.71 261.75 -327.42 253.5 -323 245 C-318.38 237.08 -313.76 229.16 -309 221 C-306.03 215.72 -303.06 210.44 -300 205 C-296.37 199.39 -292.74 193.78 -289 188 C-286.36 184.37 -283.72 180.74 -281 177 C-277.7 172.71 -274.4 168.42 -271 164 C-268.36 160.7 -265.72 157.4 -263 154 C-260.03 150.37 -257.06 146.74 -254 143 C-250.37 139.04 -246.74 135.08 -243 131 C-238.71 126.38 -234.42 121.76 -230 117 C-227.36 114.69 -224.72 112.38 -222 110 C-217.05 105.38 -212.1 100.76 -207 96 C-202.38 92.37 -197.76 88.74 -193 85 C-186.4 80.05 -179.8 75.1 -173 70 C-166.07 65.38 -159.14 60.76 -152 56 C-141.605 49.565 -141.605 49.565 -131 43 C-121.43 38.05 -111.86 33.1 -102 28 C-94.41 24.37 -86.82 20.74 -79 17 C-72.07 14.69 -65.14 12.38 -58 10 C-46.12 7.03 -46.12 7.03 -34 4 C-27.4 3.01 -20.8 2.02 -14 1 C-9.38 0.67 -4.76 0.34 0 0 Z " transform="translate(488,125)" style="fill: #363334;"/><path d="M0 0 C4.29 0 8.58 0 13 0 C14.65 0.66 16.3 1.32 18 2 C19.98 3.98 19.98 3.98 22 6 C22.33 8.97 22.66 11.94 23 15 C23.66 19.95 24.32 24.9 25 30 C26.98 37.425 26.98 37.425 29 45 C30.98 50.61 32.96 56.22 35 62 C36.98 65.96 36.98 65.96 39 70 C42.96 75.445 42.96 75.445 47 81 C50.3 83.97 53.6 86.94 57 90 C60.3 92.31 63.6 94.62 67 97 C74.425 100.96 74.425 100.96 82 105 C86.62 106.65 91.24 108.3 96 110 C101.61 111.32 107.22 112.64 113 114 C121.91 115.32 130.82 116.64 140 118 C150.89 118 161.78 118 173 118 C175.97 117.34 178.94 116.68 182 116 C188.6 114.68 195.2 113.36 202 112 C207.61 110.35 213.22 108.7 219 107 C223.29 104.69 227.58 102.38 232 100 C234.97 99.01 237.94 98.02 241 97 C243.64 94.36 246.28 91.72 249 89 C251.31 86.36 253.62 83.72 256 81 C256.66 80.67 257.32 80.34 258 80 C258 93.53 258 107.06 258 121 C258.33 121.33 258.66 121.66 259 122 C259 147.08 259 172.16 259 198 C257.68 201.63 256.36 205.26 255 209 C252.525 215.435 252.525 215.435 250 222 C248.515 224.475 248.515 224.475 247 227 C244.03 232.94 244.03 232.94 241 239 C239.35 242.3 237.7 245.6 236 249 C234.02 251.97 232.04 254.94 230 258 C228.68 259.98 227.36 261.96 226 264 C221.71 269.28 217.42 274.56 213 280 C208.05 284.95 203.1 289.9 198 295 C192.555 298.96 192.555 298.96 187 303 C184.03 305.64 181.06 308.28 178 311 C176.68 311.33 175.36 311.66 174 312 C173.67 312.66 173.34 313.32 173 314 C171.35 314.66 169.7 315.32 168 316 C165.03 318.31 162.06 320.62 159 323 C150.09 327.62 141.18 332.24 132 337 C131.34 337 130.68 337 130 337 C130 337.66 130 338.32 130 339 C128.35 339.66 126.7 340.32 125 341 C120.38 341.66 115.76 342.32 111 343 C106.71 344.32 102.42 345.64 98 347 C89.09 348.98 89.09 348.98 80 351 C72.41 352.65 64.82 354.3 57 356 C43.14 357.98 43.14 357.98 29 360 C25.37 360.33 21.74 360.66 18 361 C2.16 361 -13.68 361 -30 361 C-42.21 359.68 -54.42 358.36 -67 357 C-75.91 355.515 -75.91 355.515 -85 354 C-91.93 352.02 -98.86 350.04 -106 348 C-115.9 344.535 -115.9 344.535 -126 341 C-128.64 340.67 -131.28 340.34 -134 340 C-135.98 340 -137.96 340 -140 340 C-146.27 336.7 -152.54 333.4 -159 330 C-166.26 325.71 -173.52 321.42 -181 317 C-185.95 313.37 -190.9 309.74 -196 306 C-199.3 303.36 -202.6 300.72 -206 298 C-210.455 294.535 -210.455 294.535 -215 291 C-217.31 288.36 -219.62 285.72 -222 283 C-224.31 280.36 -226.62 277.72 -229 275 C-229.99 273.02 -230.98 271.04 -232 269 C-236.29 263.06 -240.58 257.12 -245 251 C-248.63 244.73 -252.26 238.46 -256 232 C-257.32 229.36 -258.64 226.72 -260 224 C-261.65 219.71 -263.3 215.42 -265 211 C-266.32 208.36 -267.64 205.72 -269 203 C-269.99 198.05 -269.99 198.05 -271 193 C-271.33 189.37 -271.66 185.74 -272 182 C-271.67 165.83 -271.34 149.66 -271 133 C-270.67 131.35 -270.34 129.7 -270 128 C-270 124.37 -270 120.74 -270 117 C-269.505 116.01 -269.505 116.01 -269 115 C-269.33 112.36 -269.66 109.72 -270 107 C-270 101.72 -270 96.44 -270 91 C-269.34 89.68 -268.68 88.36 -268 87 C-268.66 86.67 -269.32 86.34 -270 86 C-269.67 83.03 -269.34 80.06 -269 77 C-268.01 76.01 -267.02 75.02 -266 74 C-263.69 77.63 -261.38 81.26 -259 85 C-256.03 88.3 -253.06 91.6 -250 95 C-247.03 96.98 -244.06 98.96 -241 101 C-239.68 101.99 -238.36 102.98 -237 104 C-230.4 106.31 -223.8 108.62 -217 111 C-210.73 112.65 -204.46 114.3 -198 116 C-190.74 116.99 -183.48 117.98 -176 119 C-167.75 119 -159.5 119 -151 119 C-144.73 118.34 -138.46 117.68 -132 117 C-125.4 115.68 -118.8 114.36 -112 113 C-105.4 111.02 -98.8 109.04 -92 107 C-86.72 104.36 -81.44 101.72 -76 99 C-72.37 96.36 -68.74 93.72 -65 91 C-61.04 87.04 -57.08 83.08 -53 79 C-50.03 74.05 -47.06 69.1 -44 64 C-41.69 58.39 -39.38 52.78 -37 47 C-34.525 38.09 -34.525 38.09 -32 29 C-31.01 26.69 -30.02 24.38 -29 22 C-27.02 19.525 -27.02 19.525 -25 17 C-25 16.34 -25 15.68 -25 15 C-25.66 15 -26.32 15 -27 15 C-26.67 13.68 -26.34 12.36 -26 11 C-23.03 8.03 -20.06 5.06 -17 2 C-16.34 1.67 -15.68 1.34 -15 1 C-10.05 0.67 -5.1 0.34 0 0 Z " transform="translate(518,520)" style="fill: #F1B181;"/><path d="M0 0 C1.98 0.33 3.96 0.66 6 1 C8.31 2.98 10.62 4.96 13 7 C13.99 8.65 14.98 10.3 16 12 C17.65 14.31 19.3 16.62 21 19 C21 19.99 21 20.98 21 22 C21.66 22 22.32 22 23 22 C24.98 24.97 26.96 27.94 29 31 C29.99 32.65 30.98 34.3 32 36 C33.98 37.98 33.98 37.98 36 40 C37.485 43.465 37.485 43.465 39 47 C40.98 49.64 42.96 52.28 45 55 C48.96 60.28 52.92 65.56 57 71 C59.31 73.64 61.62 76.28 64 79 C66.97 82.96 69.94 86.92 73 91 C76.63 94.96 80.26 98.92 84 103 C86.31 105.97 88.62 108.94 91 112 C97.6 118.6 104.2 125.2 111 132 C113.31 134.64 115.62 137.28 118 140 C125.92 147.92 133.84 155.84 142 164 C142 164.33 142 164.66 142 165 C125.5 165 109 165 92 165 C81.77 165.99 71.54 166.98 61 168 C54.07 169.98 54.07 169.98 47 172 C45.02 173.32 43.04 174.64 41 176 C37.7 177.32 34.4 178.64 31 180 C27.7 181.98 24.4 183.96 21 186 C19.02 186.99 19.02 186.99 17 188 C13.535 189.98 13.535 189.98 10 192 C5.38 196.62 0.76 201.24 -4 206 C-6.475 209.465 -6.475 209.465 -9 213 C-10.65 216.3 -12.3 219.6 -14 223 C-14.99 225.64 -15.98 228.28 -17 231 C-17.33 233.64 -17.66 236.28 -18 239 C-19.32 240.32 -20.64 241.64 -22 243 C-38.83 243 -55.66 243 -73 243 C-74.65 238.05 -76.3 233.1 -78 228 C-80.97 222.39 -83.94 216.78 -87 211 C-90.63 206.71 -94.26 202.42 -98 198 C-100.97 195.36 -103.94 192.72 -107 190 C-108.65 189.01 -110.3 188.02 -112 187 C-112 186.34 -112 185.68 -112 185 C-113.98 184.01 -113.98 184.01 -116 183 C-121.28 180.36 -126.56 177.72 -132 175 C-134.31 174.01 -136.62 173.02 -139 172 C-144.445 170.02 -144.445 170.02 -150 168 C-152.31 167.34 -154.62 166.68 -157 166 C-160.3 165.67 -163.6 165.34 -167 165 C-184.82 165 -202.64 165 -221 165 C-219.515 164.01 -219.515 164.01 -218 163 C-216.02 162.01 -216.02 162.01 -214 161 C-212.35 159.35 -210.7 157.7 -209 156 C-207.35 155.67 -205.7 155.34 -204 155 C-203.67 154.01 -203.34 153.02 -203 152 C-201.68 152 -200.36 152 -199 152 C-199 151.34 -199 150.68 -199 150 C-197.515 149.01 -197.515 149.01 -196 148 C-195.01 148 -194.02 148 -193 148 C-193 147.34 -193 146.68 -193 146 C-190.03 144.02 -187.06 142.04 -184 140 C-182.02 139.01 -180.04 138.02 -178 137 C-176.35 135.35 -174.7 133.7 -173 132 C-165.08 126.555 -165.08 126.555 -157 121 C-153.7 118.69 -150.4 116.38 -147 114 C-145.35 113.01 -143.7 112.02 -142 111 C-135.4 106.38 -128.8 101.76 -122 97 C-118.37 94.36 -114.74 91.72 -111 89 C-109.35 88.34 -107.7 87.68 -106 87 C-104.35 85.35 -102.7 83.7 -101 82 C-94.565 77.05 -94.565 77.05 -88 72 C-85.69 70.02 -83.38 68.04 -81 66 C-78.69 64.68 -76.38 63.36 -74 62 C-69.71 58.37 -65.42 54.74 -61 51 C-58.525 49.02 -58.525 49.02 -56 47 C-52.37 44.03 -48.74 41.06 -45 38 C-44.01 37.01 -44.01 37.01 -43 36 C-40.69 35.01 -38.38 34.02 -36 33 C-25.605 22.605 -25.605 22.605 -15 12 C-12.36 9.69 -9.72 7.38 -7 5 C-4.525 3.02 -4.525 3.02 -2 1 C-1.34 0.67 -0.68 0.34 0 0 Z " transform="translate(562,252)" style="fill: #FDF5CE;"/><path d="M0 0 C11.22 0.33 22.44 0.66 34 1 C43.405 2.485 43.405 2.485 53 4 C54.65 4.66 56.3 5.32 58 6 C59.98 6.33 61.96 6.66 64 7 C64 7.66 64 8.32 64 9 C65.32 8.67 66.64 8.34 68 8 C73.445 9.98 73.445 9.98 79 12 C84.445 15.96 84.445 15.96 90 20 C92.64 22.31 95.28 24.62 98 27 C99.65 29.97 101.3 32.94 103 36 C104.65 39.3 106.3 42.6 108 46 C108.99 51.94 108.99 51.94 110 58 C110 68.56 110 79.12 110 90 C109.01 96.93 108.02 103.86 107 111 C105.02 116.61 103.04 122.22 101 128 C98.36 132.29 95.72 136.58 93 141 C89.37 144.3 85.74 147.6 82 151 C75.07 153.64 68.14 156.28 61 159 C51.1 160.98 51.1 160.98 41 163 C28.625 163.495 28.625 163.495 16 164 C15.67 164.33 15.34 164.66 15 165 C6.75 165 -1.5 165 -10 165 C-18.58 163.68 -27.16 162.36 -36 161 C-40.29 159.68 -44.58 158.36 -49 157 C-52.3 155.02 -55.6 153.04 -59 151 C-61.97 148.525 -61.97 148.525 -65 146 C-67.64 142.37 -70.28 138.74 -73 135 C-75.31 129.72 -77.62 124.44 -80 119 C-80.66 116.36 -81.32 113.72 -82 111 C-82 106.38 -82 101.76 -82 97 C-81.67 93.37 -81.34 89.74 -81 86 C-81 78.08 -81 70.16 -81 62 C-80.01 56.39 -79.02 50.78 -78 45 C-77.01 42.36 -76.02 39.72 -75 37 C-74.01 34.03 -73.02 31.06 -72 28 C-70.02 25.03 -68.04 22.06 -66 19 C-62.04 15.04 -58.08 11.08 -54 7 C-52.35 6.01 -50.7 5.02 -49 4 C-48.01 3.34 -47.02 2.68 -46 2 C-39.565 1.505 -39.565 1.505 -33 1 C-22.11 0.67 -11.22 0.34 0 0 Z " transform="translate(349,448)" style="fill: #BE9673;"/><path d="M0 0 C14.52 0 29.04 0 44 0 C44.99 0.33 45.98 0.66 47 1 C52.28 1.33 57.56 1.66 63 2 C70.425 3.485 70.425 3.485 78 5 C82.62 6.98 87.24 8.96 92 11 C94.64 13.31 97.28 15.62 100 18 C102.31 22.62 104.62 27.24 107 32 C108.98 40.415 108.98 40.415 111 49 C111.33 58.9 111.66 68.8 112 79 C111.67 84.28 111.34 89.56 111 95 C110.01 101.93 109.02 108.86 108 116 C105.03 122.27 102.06 128.54 99 135 C95.535 139.455 95.535 139.455 92 144 C90.68 145.65 89.36 147.3 88 149 C84.04 151.97 84.04 151.97 80 155 C70.595 157.475 70.595 157.475 61 160 C54.565 160.99 54.565 160.99 48 162 C34.47 162 20.94 162 7 162 C-4.55 161.01 -16.1 160.02 -28 159 C-32.62 157.68 -37.24 156.36 -42 155 C-44.31 153.68 -46.62 152.36 -49 151 C-53.95 147.535 -53.95 147.535 -59 144 C-61.31 141.69 -63.62 139.38 -66 137 C-67.32 135.02 -68.64 133.04 -70 131 C-70 130.34 -70 129.68 -70 129 C-70.66 129 -71.32 129 -72 129 C-73.98 121.41 -75.96 113.82 -78 106 C-78.495 103.525 -78.495 103.525 -79 101 C-79 90.44 -79 79.88 -79 69 C-78.34 67.68 -77.68 66.36 -77 65 C-77 63.02 -77 61.04 -77 59 C-77.495 57.515 -77.495 57.515 -78 56 C-77.34 54.35 -76.68 52.7 -76 51 C-76.33 49.68 -76.66 48.36 -77 47 C-76.34 46.01 -75.68 45.02 -75 44 C-74.67 42.35 -74.34 40.7 -74 39 C-72.68 36.03 -71.36 33.06 -70 30 C-67.69 27.36 -65.38 24.72 -63 22 C-60.69 19.69 -58.38 17.38 -56 15 C-51.05 12.36 -46.1 9.72 -41 7 C-35.39 5.35 -29.78 3.7 -24 2 C-12.12 1.01 -12.12 1.01 0 0 Z " transform="translate(653,450)" style="fill: #CFA678;"/></svg>